<svg width="497" height="497" viewBox="0 0 497 497" xmlns="http://www.w3.org/2000/svg"><title>svg-logo@2x</title><g fill="none" fill-rule="evenodd"><circle fill="#FEDE2E" cx="248.5" cy="248.5" r="248.5"/><path d="M248.5 497C385.743 497 497 385.743 497 248.5S385.743 0 248.5 0 0 111.257 0 248.5 111.257 497 248.5 497zm2.367 0c122.865 0 222.466-105.96 222.466-236.667s-99.6-236.666-222.466-236.666C128.002 23.667 28.4 129.627 28.4 260.333 28.4 391.04 128.002 497 250.867 497z" fill="#FED22E"/><path d="M496.793 238.27C491.428 105.77 382.316 0 248.5 0S5.572 105.77.207 238.27C23.43 115.875 125.767 23.668 248.5 23.668c122.732 0 225.07 92.207 248.293 214.604z" fill="#FEC12E"/><path d="M252.05 497c109.794 0 231.92-99.922 222.467-227.2-77.74 87.095-133.532 91.052-222.467 92.773-88.935 1.722-199.724-43.498-227.2-92.773C28.4 433.76 172.264 497 252.05 497z" fill="#FED22E"/><path d="M114.42 105.838s-4.69-4.67 13.018 17.75c51.516-44.313 97.625-2.367 97.625-2.367l14.2-15.974s-62.084-56.146-124.842.592zM284.258 123.893s1.165.023 13.608 17.158c46.132-39.617 97.625-1.774 97.625-1.774l14.2-16.566s-64.534-53.227-125.432 1.183zM151.725 160.933h23.41V227.2h-23.41zM312.658 175.133h71V198.8h-71zM252.953 160.933l21.3 11.293s-38.594 93.02-54.21 133.056c-3.18 8.154-5.41 14.11-6.163 16.636-4.46 14.928-2.332 23.508.023 26.08 2.355 2.575 46.15 0 46.15 0l14.2 26.626s-41.69-.81-65.675-1.183c-16.26-4.36-19.548-17.75-19.548-17.75s-8.557-12.63-1.16-42.007c7.397-29.377 65.083-152.75 65.083-152.75z" fill="#5E5F66"/><path d="M111.485 345.533L254.65 428.39l131.94-82.242 13.61 19.525-143.228 82.833-157.314-81.65 11.827-21.323z"/><path d="M111.535 345.533s119.212 72.302 136.675 82.834c6.23 3.1 9.754 4.285 18.342-.592 7.978-9.915 121.906-80.467 121.906-80.467s5.934 9.28 10.963 17.28c-70.11 37.558-110.123 72.748-126.022 81.573-8.95 5.968-30.226 4.808-34.673-.043 0 0-125.08-80.685-139.067-81.65l11.877-18.934z" fill="#5E5F66"/></g></svg>